<svg width="217" height="63" viewBox="0 0 217 63" fill="none" xmlns="http://www.w3.org/2000/svg">
<rect x="12.8407" y="15.563" width="200.159" height="43.437" fill="white" stroke="black" stroke-width="8"/>
<rect x="4" y="4.3111" width="200.159" height="43.437" fill="white" stroke="black" stroke-width="8"/>
<path d="M60.6441 35.7407V18.9967H69.2761C70.6454 18.9967 71.7721 19.2741 72.6561 19.8287C73.5574 20.3661 74.2247 21.1027 74.6581 22.0387C75.0914 22.9747 75.3081 24.0147 75.3081 25.1587C75.3081 26.3374 75.0567 27.3861 74.5541 28.3047C74.0514 29.2234 73.3407 29.9427 72.4221 30.4627C71.5034 30.9827 70.4201 31.2427 69.1721 31.2427H65.5321V35.7407H60.6441ZM65.5321 27.4987H68.0541C68.8167 27.4987 69.3801 27.2821 69.7441 26.8487C70.1254 26.4154 70.3161 25.8521 70.3161 25.1587C70.3161 24.4134 70.1427 23.8241 69.7961 23.3907C69.4494 22.9574 68.9121 22.7407 68.1841 22.7407H65.5321V27.4987ZM76.6148 35.7407V18.9967H84.1028C85.8188 18.9967 87.2834 19.2827 88.4968 19.8547C89.7101 20.4094 90.6374 21.3107 91.2788 22.5587C91.9201 23.7894 92.2408 25.4274 92.2408 27.4727C92.2408 30.3501 91.5388 32.4474 90.1348 33.7647C88.7308 35.0821 86.7201 35.7407 84.1028 35.7407H76.6148ZM81.5028 31.9967H83.4788C84.2934 31.9967 84.9781 31.8841 85.5328 31.6587C86.0874 31.4161 86.5121 30.9741 86.8068 30.3327C87.1014 29.6741 87.2488 28.7207 87.2488 27.4727C87.2488 26.2247 87.1101 25.2627 86.8328 24.5867C86.5728 23.8934 86.1654 23.4167 85.6108 23.1567C85.0561 22.8794 84.3454 22.7407 83.4788 22.7407H81.5028V31.9967ZM94.0581 35.7407V18.9967H106.642V22.6367H98.9461V25.5227H105.654V29.2147H98.9461V35.7407H94.0581Z" fill="black"/>
<path d="M129.045 35.2722C128.603 35.2722 128.216 35.1065 127.884 34.775C127.553 34.4434 127.387 34.0566 127.387 33.6146V29.6639H129.045V33.6146H143.411V29.6639H145.069V33.6146C145.069 34.0566 144.903 34.4434 144.571 34.775C144.24 35.1065 143.853 35.2722 143.411 35.2722H129.045ZM136.228 31.0453L130.896 25.7132L132.084 24.5252L135.399 27.8405V17.5908H137.057V27.8405L140.372 24.5252L141.56 25.7132L136.228 31.0453Z" fill="black"/>
</svg>
