<svg width="50" height="50" viewBox="0 0 50 50" fill="none" xmlns="http://www.w3.org/2000/svg">
<path d="M6 4C4.9 4 4 4.9 4 6V44C4 45.1 4.9 46 6 46H44C45.1 46 46 45.1 46 44V6C46 4.9 45.1 4 44 4H6ZM18.5801 14C20.5701 14 22.2606 14.4803 23.3906 15.5703C24.4106 16.5903 24.9492 18.1608 24.9492 20.0508C24.9492 22.0308 24.4706 23.3709 23.6406 24.4609C22.4906 26.0609 20.4708 26.8594 18.5508 26.8594C18.1408 26.8594 17.8209 26.8601 17.4609 26.8301V36H15V14.4199C15.99 14.1599 17.1401 14 18.5801 14ZM18.9805 15.6406C18.4005 15.6406 17.9196 15.7008 17.5996 15.8008V24.4102C17.8896 24.4402 18.1798 24.4707 18.5898 24.4707C20.9898 24.4707 22.6191 22.8701 22.6191 19.8301C22.6191 17.6201 21.7305 15.6406 18.9805 15.6406ZM31.7109 20C32.9809 20 33.9003 20.3908 34.5703 20.8008L33.9004 22.6699C33.2704 22.2499 32.61 21.9609 31.75 21.9609C30.39 21.9609 29.6895 22.9192 29.6895 23.9492C29.6895 24.9792 30.0897 25.5891 31.6797 26.6191C33.5397 27.7791 35 29.2191 35 31.3691C35 34.4891 32.8104 36 30.1504 36C28.9904 36 27.7 35.6496 27 35.0996L27.6309 33.2402C28.2009 33.5902 29.1907 34.0391 30.2207 34.0391C31.6507 34.0391 32.5801 33.1691 32.5801 31.7891C32.5801 30.5991 32.1495 29.7702 30.5195 28.7402C28.4295 27.4202 27.3008 26.0705 27.3008 24.3105C27.3008 21.7705 29.2209 20 31.7109 20Z" fill="black"/>
</svg>
