<svg width="50" height="50" viewBox="0 0 50 50" fill="none" xmlns="http://www.w3.org/2000/svg">
<path d="M25 2V16H18C14.145 16 11 12.855 11 9C11 5.145 14.145 2 18 2H25ZM25 18V32H18C14.145 32 11 28.855 11 25C11 21.145 14.145 18 18 18H25ZM25 34V41C25 44.855 21.855 48 18 48C14.145 48 11 44.855 11 41C11 37.145 14.145 34 18 34H25ZM41 9C41 12.855 37.855 16 34 16H27V2H34C37.855 2 41 5.145 41 9ZM34 18C32.1435 18 30.363 18.7375 29.0503 20.0503C27.7375 21.363 27 23.1435 27 25C27 26.8565 27.7375 28.637 29.0503 29.9497C30.363 31.2625 32.1435 32 34 32C35.8565 32 37.637 31.2625 38.9497 29.9497C40.2625 28.637 41 26.8565 41 25C41 23.1435 40.2625 21.363 38.9497 20.0503C37.637 18.7375 35.8565 18 34 18Z" fill="black"/>
</svg>
